<svg width="40" height="8" viewBox="0 0 40 8" fill="none" xmlns="http://www.w3.org/2000/svg">
<path d="M6.41998 4.23991C6.41998 5.07992 6.16998 5.74993 5.66998 6.23994C5.10998 6.82995 4.36998 7.12995 3.46998 7.12995C2.59998 7.12995 1.86998 6.82995 1.25998 6.22994C0.649976 5.62993 0.349976 4.87992 0.349976 3.99991C0.349976 3.1099 0.649976 2.36989 1.25998 1.76988C1.86998 1.16988 2.59998 0.869873 3.46998 0.869873C3.89998 0.869873 4.30998 0.949874 4.69998 1.11988C5.08998 1.28988 5.39998 1.50988 5.63998 1.78988L5.10998 2.31989C4.70998 1.84988 4.16998 1.60988 3.46998 1.60988C2.83998 1.60988 2.28998 1.82988 1.82998 2.27989C1.36998 2.7199 1.13998 3.2999 1.13998 4.00991C1.13998 4.71992 1.36998 5.29993 1.82998 5.73993C2.28998 6.17994 2.83998 6.40994 3.46998 6.40994C4.13998 6.40994 4.69998 6.18994 5.14998 5.73993C5.43999 5.44993 5.60999 5.03992 5.64999 4.51992H3.46998V3.79991H6.37999C6.39999 3.94991 6.41998 4.09991 6.41998 4.23991Z" fill="white" stroke="white" stroke-width="0.2" stroke-miterlimit="10"/>
<path d="M11.03 1.73988H8.30003V3.63988H10.76V4.35989H8.30003V6.25989H11.03V6.99989H7.53003V0.999878H11.03V1.73988Z" fill="white" stroke="white" stroke-width="0.2" stroke-miterlimit="10"/>
<path d="M14.28 6.99989H13.51V1.73988H11.83V0.999878H15.95V1.73988H14.27V6.99989H14.28Z" fill="white" stroke="white" stroke-width="0.2" stroke-miterlimit="10"/>
<path d="M18.94 6.99989V0.999878H19.71V6.99989H18.94Z" fill="white" stroke="white" stroke-width="0.2" stroke-miterlimit="10"/>
<path d="M23.13 6.99989H22.36V1.73988H20.68V0.999878H24.8V1.73988H23.12V6.99989H23.13Z" fill="white" stroke="white" stroke-width="0.2" stroke-miterlimit="10"/>
<path d="M32.61 6.21994C32.02 6.82995 31.29 7.12995 30.41 7.12995C29.53 7.12995 28.8 6.82995 28.21 6.21994C27.62 5.60993 27.33 4.86992 27.33 3.99991C27.33 3.1299 27.62 2.37989 28.21 1.77988C28.8 1.16988 29.53 0.869873 30.41 0.869873C31.28 0.869873 32.01 1.16988 32.61 1.77988C33.2 2.38989 33.5 3.1299 33.5 3.99991C33.49 4.87992 33.2 5.61993 32.61 6.21994ZM28.78 5.71993C29.22 6.16994 29.77 6.38994 30.41 6.38994C31.05 6.38994 31.6 6.16994 32.04 5.71993C32.48 5.26993 32.71 4.69992 32.71 3.99991C32.71 3.2999 32.49 2.7299 32.04 2.27989C31.6 1.82988 31.05 1.60988 30.41 1.60988C29.77 1.60988 29.22 1.82988 28.78 2.27989C28.34 2.7299 28.11 3.2999 28.11 3.99991C28.11 4.69992 28.34 5.26993 28.78 5.71993Z" fill="white" stroke="white" stroke-width="0.2" stroke-miterlimit="10"/>
<path d="M34.58 6.99989V0.999878H35.52L38.44 5.66989H38.47L38.44 4.50989V0.999878H39.21V6.99989H38.41L35.36 2.10988H35.33L35.36 3.26988V6.99989H34.58Z" fill="white" stroke="white" stroke-width="0.2" stroke-miterlimit="10"/>
</svg>
