<svg width="25" height="26" viewBox="0 0 25 26" fill="none" xmlns="http://www.w3.org/2000/svg">
<path d="M1.43998 0.539972C1.14998 0.849971 0.97998 1.32997 0.97998 1.93997V24.0599C0.97998 24.6799 1.14998 25.1599 1.43998 25.4599L1.50998 25.5299L13.9 13.1499V12.9999V12.8499L1.50998 0.469971L1.43998 0.539972Z" fill="url(#paint0_linear_1_57)"/>
<path d="M18.03 17.2799L13.9 13.1499V12.9999V12.8499L18.03 8.71997L18.12 8.76997L23.01 11.55C24.41 12.3399 24.41 13.6399 23.01 14.4399L18.12 17.2199L18.03 17.2799Z" fill="url(#paint1_linear_1_57)"/>
<path d="M18.12 17.22L13.9 13L1.44 25.46C1.9 25.95 2.66 26.01 3.52 25.52L18.12 17.22Z" fill="url(#paint2_linear_1_57)"/>
<path d="M18.12 8.77997L3.50997 0.479986C2.64997 -0.0100129 1.88997 0.0499884 1.42997 0.539987L13.9 13L18.12 8.77997Z" fill="url(#paint3_linear_1_57)"/>
<path opacity="0.2" d="M18.03 17.13L3.50998 25.38C2.69998 25.84 1.96998 25.81 1.50998 25.39L1.43998 25.46L1.50998 25.53C1.97998 25.95 2.69998 25.98 3.50998 25.52L18.12 17.22L18.03 17.13Z" fill="black"/>
<path opacity="0.12" d="M1.44001 25.3201C1.14999 25.0101 0.97998 24.5302 0.97998 23.9202V24.0702C0.97998 24.6901 1.14999 25.1701 1.44001 25.4701L1.51001 25.4001L1.44001 25.3201Z" fill="black"/>
<path opacity="0.12" d="M23.01 14.3L18.02 17.1301L18.11 17.2201L23 14.44C23.7 14.04 24.05 13.52 24.05 13C24 13.47 23.65 13.94 23.01 14.3Z" fill="black"/>
<path opacity="0.25" d="M3.50997 0.61994L23.01 11.7C23.64 12.06 24 12.52 24.06 13C24.06 12.48 23.71 11.95 23.01 11.56L3.50997 0.479938C2.10997 -0.310064 0.969971 0.349939 0.969971 1.94994V2.09994C0.969971 0.489939 2.11997 -0.170063 3.50997 0.61994Z" fill="white"/>
<defs>
<linearGradient id="paint0_linear_1_57" x1="12.7997" y1="1.70967" x2="-3.98263" y2="18.4921" gradientUnits="userSpaceOnUse">
<stop stop-color="#00A0FF"/>
<stop offset="0.00657445" stop-color="#00A1FF"/>
<stop offset="0.2601" stop-color="#00BEFF"/>
<stop offset="0.5122" stop-color="#00D2FF"/>
<stop offset="0.7604" stop-color="#00DFFF"/>
<stop offset="1" stop-color="#00E3FF"/>
</linearGradient>
<linearGradient id="paint1_linear_1_57" x1="24.8344" y1="13.0013" x2="0.637559" y2="13.0013" gradientUnits="userSpaceOnUse">
<stop stop-color="#FFE000"/>
<stop offset="0.4087" stop-color="#FFBD00"/>
<stop offset="0.7754" stop-color="#FFA500"/>
<stop offset="1" stop-color="#FF9C00"/>
</linearGradient>
<linearGradient id="paint2_linear_1_57" x1="15.827" y1="15.2961" x2="-6.93125" y2="38.0544" gradientUnits="userSpaceOnUse">
<stop stop-color="#FF3A44"/>
<stop offset="1" stop-color="#C31162"/>
</linearGradient>
<linearGradient id="paint3_linear_1_57" x1="-1.70273" y1="-6.8238" x2="8.45985" y2="3.3387" gradientUnits="userSpaceOnUse">
<stop stop-color="#32A071"/>
<stop offset="0.0685" stop-color="#2DA771"/>
<stop offset="0.4762" stop-color="#15CF74"/>
<stop offset="0.8009" stop-color="#06E775"/>
<stop offset="1" stop-color="#00F076"/>
</linearGradient>
</defs>
</svg>
