<svg width="85" height="18" viewBox="0 0 85 18" fill="none" xmlns="http://www.w3.org/2000/svg">
<path d="M27.14 4.74996C24.79 4.74996 22.87 6.53997 22.87 8.99998C22.87 11.45 24.79 13.25 27.14 13.25C29.49 13.25 31.41 11.45 31.41 8.99998C31.41 6.53997 29.49 4.74996 27.14 4.74996ZM27.14 11.58C25.85 11.58 24.74 10.52 24.74 8.99998C24.74 7.46997 25.85 6.41996 27.14 6.41996C28.43 6.41996 29.54 7.46997 29.54 8.99998C29.54 10.52 28.42 11.58 27.14 11.58ZM17.82 4.74996C15.47 4.74996 13.55 6.53997 13.55 8.99998C13.55 11.45 15.47 13.25 17.82 13.25C20.17 13.25 22.09 11.45 22.09 8.99998C22.09 6.53997 20.17 4.74996 17.82 4.74996ZM17.82 11.58C16.53 11.58 15.42 10.52 15.42 8.99998C15.42 7.46997 16.53 6.41996 17.82 6.41996C19.11 6.41996 20.22 7.46997 20.22 8.99998C20.22 10.52 19.11 11.58 17.82 11.58ZM6.74004 6.05996V7.85997H11.06C10.93 8.86998 10.59 9.61998 10.08 10.13C9.45004 10.76 8.47003 11.45 6.75003 11.45C4.09004 11.45 2.01004 9.30998 2.01004 6.64997C2.01004 3.98995 4.09004 1.84994 6.75003 1.84994C8.18003 1.84994 9.23003 2.40994 10 3.13995L11.27 1.86994C10.19 0.839933 8.76004 0.0499268 6.74004 0.0499268C3.10004 0.0499268 0.0400391 3.00994 0.0400391 6.65997C0.0400391 10.3 3.10004 13.27 6.74004 13.27C8.71004 13.27 10.19 12.63 11.35 11.42C12.54 10.23 12.91 8.54998 12.91 7.19997C12.91 6.77997 12.88 6.38996 12.81 6.06996H6.74004V6.05996ZM52.05 7.45997C51.7 6.50996 50.62 4.74996 48.41 4.74996C46.22 4.74996 44.4 6.46996 44.4 8.99998C44.4 11.38 46.2 13.25 48.62 13.25C50.57 13.25 51.7 12.06 52.16 11.37L50.71 10.4C50.23 11.11 49.57 11.58 48.62 11.58C47.67 11.58 46.99 11.14 46.56 10.29L52.25 7.93997L52.05 7.45997ZM46.25 8.87998C46.2 7.23997 47.52 6.39997 48.47 6.39997C49.21 6.39997 49.84 6.76997 50.05 7.29997L46.25 8.87998ZM41.63 13H43.5V0.49993H41.63V13ZM38.57 5.69996H38.5C38.08 5.19996 37.28 4.74996 36.26 4.74996C34.13 4.74996 32.18 6.61997 32.18 9.01998C32.18 11.4 34.13 13.26 36.26 13.26C37.27 13.26 38.08 12.81 38.5 12.29H38.56V12.9C38.56 14.53 37.69 15.4 36.29 15.4C35.15 15.4 34.44 14.58 34.15 13.89L32.52 14.57C32.99 15.7 34.23 17.08 36.29 17.08C38.48 17.08 40.33 15.79 40.33 12.65V5.00995H38.56V5.69996H38.57ZM36.42 11.58C35.13 11.58 34.05 10.5 34.05 9.01998C34.05 7.51997 35.13 6.42997 36.42 6.42997C37.69 6.42997 38.69 7.52997 38.69 9.01998C38.7 10.5 37.7 11.58 36.42 11.58ZM60.81 0.49993H56.34V13H58.21V8.25997H60.82C62.89 8.25997 64.92 6.75997 64.92 4.37995C64.92 1.99994 62.87 0.49993 60.81 0.49993ZM60.85 6.51997H58.2V2.22994H60.85C62.25 2.22994 63.04 3.38995 63.04 4.36995C63.04 5.34996 62.25 6.51997 60.85 6.51997ZM72.39 4.72995C71.04 4.72995 69.64 5.32996 69.06 6.63997L70.72 7.32997C71.07 6.63997 71.73 6.40996 72.42 6.40996C73.38 6.40996 74.37 6.98997 74.38 8.01997V8.14998C74.04 7.95998 73.32 7.66997 72.43 7.66997C70.64 7.66997 68.83 8.64998 68.83 10.48C68.83 12.15 70.29 13.23 71.93 13.23C73.18 13.23 73.88 12.67 74.31 12.01H74.37V12.98H76.17V8.18997C76.18 5.96996 74.52 4.72995 72.39 4.72995ZM72.16 11.58C71.55 11.58 70.7 11.27 70.7 10.52C70.7 9.55998 71.76 9.18998 72.68 9.18998C73.5 9.18998 73.89 9.36998 74.38 9.60998C74.24 10.76 73.24 11.58 72.16 11.58ZM82.74 4.99996L80.6 10.42H80.54L78.32 4.99996H76.31L79.64 12.58L77.74 16.79H79.69L84.82 4.99996H82.74ZM65.94 13H67.81V0.49993H65.94V13Z" fill="white"/>
</svg>
