<svg width="7" height="8" viewBox="0 0 7 8" fill="none" xmlns="http://www.w3.org/2000/svg">
<path d="M6.41998 4.23991C6.41998 5.07992 6.16998 5.74993 5.66998 6.23994C5.10998 6.82995 4.36998 7.12995 3.46998 7.12995C2.59998 7.12995 1.86998 6.82995 1.25998 6.22994C0.649976 5.62993 0.349976 4.87992 0.349976 3.99991C0.349976 3.1099 0.649976 2.36989 1.25998 1.76988C1.86998 1.16988 2.59998 0.869873 3.46998 0.869873C3.89998 0.869873 4.30998 0.949874 4.69998 1.11988C5.08998 1.28988 5.39998 1.50988 5.63998 1.78988L5.10998 2.31989C4.70998 1.84988 4.16998 1.60988 3.46998 1.60988C2.83998 1.60988 2.28998 1.82988 1.82998 2.27989C1.36998 2.7199 1.13998 3.2999 1.13998 4.00991C1.13998 4.71992 1.36998 5.29993 1.82998 5.73993C2.28998 6.17994 2.83998 6.40994 3.46998 6.40994C4.13998 6.40994 4.69998 6.18994 5.14998 5.73993C5.43999 5.44993 5.60999 5.03992 5.64999 4.51992H3.46998V3.79991H6.37999C6.39999 3.94991 6.41998 4.09991 6.41998 4.23991Z" fill="white" stroke="white" stroke-width="0.2" stroke-miterlimit="10"/>
</svg>
