<svg width="7" height="8" viewBox="0 0 7 8" fill="none" xmlns="http://www.w3.org/2000/svg">
<path d="M5.60996 6.21994C5.01997 6.82995 4.28997 7.12995 3.40997 7.12995C2.52998 7.12995 1.79997 6.82995 1.20997 6.21994C0.619976 5.60993 0.329979 4.86992 0.329979 3.99991C0.329979 3.1299 0.619976 2.37989 1.20997 1.77988C1.79997 1.16988 2.52998 0.869873 3.40997 0.869873C4.27997 0.869873 5.00997 1.16988 5.60996 1.77988C6.19996 2.38989 6.49996 3.1299 6.49996 3.99991C6.48996 4.87992 6.19996 5.61993 5.60996 6.21994ZM1.77997 5.71993C2.21997 6.16994 2.76997 6.38994 3.40997 6.38994C4.04997 6.38994 4.59997 6.16994 5.03997 5.71993C5.47997 5.26993 5.70996 4.69992 5.70996 3.99991C5.70996 3.2999 5.48997 2.7299 5.03997 2.27989C4.59997 1.82988 4.04997 1.60988 3.40997 1.60988C2.76997 1.60988 2.21997 1.82988 1.77997 2.27989C1.33997 2.7299 1.10998 3.2999 1.10998 3.99991C1.10998 4.69992 1.33997 5.26993 1.77997 5.71993Z" fill="white" stroke="white" stroke-width="0.2" stroke-miterlimit="10"/>
</svg>
