<svg width="119" height="40" viewBox="0 0 119 40" fill="none" xmlns="http://www.w3.org/2000/svg">
<path d="M8.44481 39.125C8.14013 39.125 7.84281 39.1211 7.54052 39.1143C6.9143 39.1062 6.28954 39.0517 5.67138 38.9512C5.09497 38.852 4.53658 38.6673 4.01464 38.4033C3.49748 38.1416 3.02579 37.7983 2.61764 37.3867C2.20358 36.98 1.85885 36.5083 1.59713 35.9902C1.33252 35.4688 1.14939 34.9099 1.05413 34.333C0.95125 33.7132 0.89559 33.0864 0.887626 32.4581C0.881286 32.2472 0.872986 31.545 0.872986 31.545V8.44445C0.872986 8.44445 0.881826 7.75304 0.887676 7.54991C0.895302 6.92259 0.950638 6.29676 1.05321 5.67784C1.14864 5.09936 1.33191 4.53886 1.59667 4.01574C1.85743 3.49806 2.20024 3.02598 2.61181 2.6178C3.02291 2.20574 3.49611 1.86072 4.01415 1.59533C4.53489 1.33221 5.09222 1.14885 5.66747 1.05139C6.28766 0.949958 6.91459 0.895118 7.54298 0.887332L8.4453 0.875122H111.214L112.127 0.887822C112.75 0.895221 113.371 0.949572 113.985 1.05041C114.566 1.1491 115.13 1.33374 115.656 1.59826C116.694 2.13311 117.539 2.97928 118.071 4.01819C118.332 4.53769 118.512 5.09362 118.606 5.6671C118.71 6.2911 118.768 6.92185 118.78 7.55431C118.783 7.83751 118.783 8.14171 118.783 8.44445C118.791 8.81944 118.791 9.17637 118.791 9.53623V30.4649C118.791 30.8282 118.791 31.1827 118.783 31.5401C118.783 31.8653 118.783 32.1632 118.779 32.4698C118.768 33.0909 118.71 33.7104 118.608 34.3232C118.515 34.9043 118.333 35.4676 118.068 35.9932C117.805 36.5057 117.462 36.9733 117.053 37.3789C116.644 37.7927 116.172 38.138 115.653 38.4014C115.128 38.6674 114.566 38.8528 113.985 38.9512C113.367 39.0522 112.742 39.1067 112.116 39.1143C111.823 39.1211 111.517 39.125 111.219 39.125L110.135 39.127L8.44481 39.125Z" fill="black"/>
</svg>
