<svg width="120" height="40" viewBox="0 0 120 40" fill="none" xmlns="http://www.w3.org/2000/svg">
<path d="M110.135 0.00013H9.53468C9.16798 0.00013 8.80568 0.00013 8.43995 0.00212999C8.1338 0.00412999 7.83009 0.00993997 7.521 0.01483C6.84951 0.0227317 6.17961 0.081806 5.5171 0.191539C4.85552 0.303662 4.21467 0.515044 3.61622 0.818537C3.0185 1.1246 2.47234 1.52229 1.99757 1.99719C1.5203 2.47076 1.12246 3.01814 0.81935 3.61828C0.5154 4.21723 0.30464 4.85905 0.19435 5.52159C0.0830109 6.1833 0.0230984 6.85263 0.01515 7.52359C0.00587 7.83018 0.00489 8.1378 0 8.44444V31.5586C0.00489 31.8691 0.00587 32.1699 0.01515 32.4805C0.0231008 33.1514 0.0830134 33.8207 0.19435 34.4824C0.304336 35.1453 0.515108 35.7875 0.81935 36.3867C1.12233 36.9849 1.52022 37.5301 1.99757 38.001C2.47054 38.478 3.01705 38.876 3.61622 39.1797C4.21467 39.484 4.85545 39.6967 5.5171 39.8105C6.17972 39.9194 6.84956 39.9785 7.521 39.9873C7.83009 39.9941 8.1338 39.998 8.43995 39.998C8.80567 40 9.168 40 9.53468 40H110.135C110.494 40 110.859 40 111.219 39.998C111.523 39.998 111.836 39.9941 112.141 39.9873C112.811 39.9789 113.479 39.9198 114.141 39.8105C114.804 39.6959 115.448 39.4833 116.049 39.1797C116.647 38.8758 117.193 38.4779 117.666 38.001C118.142 37.5282 118.541 36.9835 118.848 36.3867C119.15 35.7871 119.358 35.145 119.467 34.4824C119.578 33.8207 119.64 33.1515 119.652 32.4805C119.656 32.1699 119.656 31.8691 119.656 31.5586C119.664 31.1953 119.664 30.834 119.664 30.4648V9.53623C119.664 9.17002 119.664 8.80674 119.656 8.44444C119.656 8.1378 119.656 7.83018 119.652 7.52355C119.64 6.85253 119.578 6.18335 119.467 5.52155C119.358 4.8594 119.149 4.21762 118.848 3.61824C118.23 2.41532 117.252 1.43615 116.049 0.818447C115.448 0.515696 114.804 0.304369 114.141 0.191449C113.48 0.0812325 112.811 0.0221377 112.141 0.01469C111.836 0.00980997 111.523 0.00394999 111.219 0.00199999C110.859 0 110.494 0 110.135 0V0.00013Z" fill="#A6A6A6"/>
</svg>
