<svg width="101" height="26" viewBox="0 0 101 26" fill="none" xmlns="http://www.w3.org/2000/svg">
<path d="M15.7689 12.3007C15.7796 11.4661 16.0013 10.6477 16.4134 9.92172C16.8254 9.19576 17.4143 8.58582 18.1254 8.14865C17.6737 7.50348 17.0777 6.97254 16.3849 6.59799C15.6921 6.22343 14.9215 6.01559 14.1343 5.99096C12.455 5.8147 10.8271 6.99579 9.97137 6.99579C9.0991 6.99579 7.7816 6.00846 6.36287 6.03765C5.4452 6.06729 4.55085 6.33415 3.76697 6.81221C2.98309 7.29027 2.33642 7.96323 1.88995 8.76553C-0.0440497 12.114 1.39854 17.035 3.25115 19.7417C4.17805 21.067 5.26133 22.5475 6.67878 22.495C8.06584 22.4375 8.58388 21.6105 10.2582 21.6105C11.9169 21.6105 12.403 22.495 13.8492 22.4616C15.3376 22.4374 16.2753 21.1304 17.1697 19.7924C17.8357 18.8481 18.3481 17.8044 18.6881 16.6999C17.8234 16.3342 17.0855 15.722 16.5664 14.9397C16.0472 14.1574 15.7699 13.2396 15.7689 12.3007Z" fill="white"/>
<path d="M13.0372 4.21105C13.8488 3.23685 14.2486 1.98468 14.1518 0.720459C12.9119 0.850679 11.7667 1.44323 10.9442 2.38006C10.542 2.83772 10.234 3.37015 10.0378 3.94692C9.84155 4.52368 9.76091 5.13347 9.80047 5.74142C10.4206 5.74781 11.0341 5.6134 11.5948 5.34831C12.1554 5.08323 12.6486 4.69438 13.0372 4.21105Z" fill="white"/>
<path d="M33.3022 19.1397H28.5688L27.4321 22.4962H25.4272L29.9106 10.0781H31.9937L36.4771 22.4962H34.438L33.3022 19.1397ZM29.0591 17.5909H32.8111L30.9615 12.1436H30.9097L29.0591 17.5909Z" fill="white"/>
<path d="M46.1597 17.9698C46.1597 20.7833 44.6538 22.5909 42.3814 22.5909C41.8057 22.621 41.2332 22.4884 40.7294 22.2083C40.2256 21.9282 39.8109 21.5118 39.5327 21.0069H39.4897V25.4913H37.6313V13.4425H39.4302V14.9483H39.4644C39.7553 14.4459 40.1771 14.0317 40.6847 13.7498C41.1923 13.468 41.7669 13.329 42.3472 13.3477C44.645 13.3477 46.1597 15.1642 46.1597 17.9698ZM44.2495 17.9698C44.2495 16.1368 43.3022 14.9317 41.8569 14.9317C40.437 14.9317 39.4819 16.1622 39.4819 17.9698C39.4819 19.7941 40.437 21.0157 41.8569 21.0157C43.3023 21.0157 44.2495 19.8194 44.2495 17.9698Z" fill="white"/>
<path d="M56.1245 17.9698C56.1245 20.7833 54.6187 22.5909 52.3462 22.5909C51.7706 22.621 51.1981 22.4884 50.6943 22.2083C50.1905 21.9282 49.7758 21.5118 49.4976 21.0069H49.4546V25.4913H47.5962V13.4425H49.395V14.9483H49.4292C49.7201 14.4459 50.1419 14.0317 50.6495 13.7498C51.1571 13.468 51.7317 13.329 52.312 13.3477C54.6099 13.3477 56.1245 15.1641 56.1245 17.9698ZM54.2144 17.9698C54.2144 16.1368 53.2671 14.9317 51.8218 14.9317C50.4019 14.9317 49.4468 16.1622 49.4468 17.9698C49.4468 19.7941 50.4019 21.0157 51.8218 21.0157C53.2671 21.0157 54.2144 19.8194 54.2144 17.9698H54.2144Z" fill="white"/>
<path d="M62.7104 19.0362C62.8481 20.2676 64.0444 21.0761 65.6792 21.0761C67.2456 21.0761 68.3726 20.2676 68.3726 19.1572C68.3726 18.1933 67.6929 17.6162 66.0835 17.2207L64.4741 16.833C62.1939 16.2822 61.1353 15.2158 61.1353 13.4853C61.1353 11.3428 63.0024 9.87109 65.6538 9.87109C68.2778 9.87109 70.0766 11.3428 70.1372 13.4853H68.2612C68.1489 12.2461 67.1245 11.498 65.6274 11.498C64.1303 11.498 63.1059 12.2549 63.1059 13.3564C63.1059 14.2344 63.7602 14.751 65.3608 15.1464L66.729 15.4824C69.2768 16.0849 70.3354 17.1084 70.3354 18.9247C70.3354 21.248 68.4848 22.703 65.5415 22.703C62.7876 22.703 60.9282 21.2822 60.8081 19.0361L62.7104 19.0362Z" fill="white"/>
<path d="M74.3462 11.2999V13.4425H76.0679V14.9142H74.3462V19.9054C74.3462 20.6808 74.6909 21.0421 75.4478 21.0421C75.6521 21.0385 75.8562 21.0242 76.0591 20.9991V22.462C75.7188 22.5256 75.373 22.5544 75.0269 22.5479C73.1939 22.5479 72.479 21.8594 72.479 20.1036V14.9142H71.1626V13.4425H72.479V11.2999H74.3462Z" fill="white"/>
<path d="M77.065 17.9699C77.065 15.1212 78.7427 13.3312 81.3589 13.3312C83.9839 13.3312 85.6539 15.1212 85.6539 17.9699C85.6539 20.8263 83.9927 22.6085 81.3589 22.6085C78.7261 22.6085 77.065 20.8263 77.065 17.9699ZM83.7603 17.9699C83.7603 16.0157 82.8648 14.8624 81.3589 14.8624C79.8531 14.8624 78.9585 16.0245 78.9585 17.9699C78.9585 19.9318 79.8531 21.0763 81.3589 21.0763C82.8648 21.0763 83.7603 19.9318 83.7603 17.9699H83.7603Z" fill="white"/>
<path d="M87.186 13.4425H88.9585V14.9835H89.0015C89.1214 14.5022 89.4034 14.0769 89.8 13.779C90.1966 13.4811 90.6836 13.3288 91.1793 13.3478C91.3934 13.347 91.607 13.3703 91.816 13.4171V15.1554C91.5456 15.0728 91.2636 15.0348 90.981 15.0431C90.711 15.0321 90.4418 15.0797 90.192 15.1826C89.9422 15.2855 89.7175 15.4413 89.5336 15.6391C89.3496 15.837 89.2106 16.0724 89.1262 16.3291C89.0418 16.5857 89.0139 16.8576 89.0444 17.1261V22.4963H87.186L87.186 13.4425Z" fill="white"/>
<path d="M100.384 19.837C100.134 21.4805 98.5337 22.6084 96.4858 22.6084C93.852 22.6084 92.2173 20.8438 92.2173 18.0128C92.2173 15.173 93.8608 13.3312 96.4077 13.3312C98.9126 13.3312 100.488 15.0519 100.488 17.7969V18.4337H94.0933V18.546C94.0638 18.8792 94.1055 19.2148 94.2156 19.5307C94.3258 19.8465 94.5019 20.1353 94.7323 20.3778C94.9627 20.6204 95.242 20.8111 95.5517 20.9374C95.8615 21.0637 96.1945 21.1227 96.5288 21.1104C96.968 21.1515 97.4087 21.0498 97.7854 20.8204C98.1621 20.5909 98.4547 20.246 98.6196 19.837L100.384 19.837ZM94.102 17.1348H98.6284C98.6451 16.8353 98.5997 16.5354 98.495 16.2542C98.3903 15.973 98.2286 15.7165 98.0201 15.5007C97.8116 15.285 97.5607 15.1146 97.2833 15.0004C97.0058 14.8862 96.7077 14.8306 96.4077 14.837C96.1051 14.8352 95.8051 14.8934 95.525 15.0081C95.245 15.1228 94.9905 15.2919 94.7761 15.5055C94.5617 15.7192 94.3918 15.9731 94.2761 16.2528C94.1604 16.5324 94.1013 16.8322 94.102 17.1349V17.1348Z" fill="white"/>
</svg>
