<svg width="19" height="18" viewBox="0 0 19 18" fill="none" xmlns="http://www.w3.org/2000/svg">
<path d="M15.7689 7.30073C15.7796 6.46606 16.0013 5.64768 16.4134 4.92172C16.8254 4.19576 17.4143 3.58582 18.1254 3.14865C17.6737 2.50348 17.0777 1.97254 16.3849 1.59799C15.6921 1.22343 14.9215 1.01559 14.1343 0.990956C12.455 0.814695 10.8271 1.99579 9.97137 1.99579C9.0991 1.99579 7.7816 1.00846 6.36287 1.03765C5.4452 1.06729 4.55085 1.33415 3.76697 1.81221C2.98309 2.29027 2.33642 2.96323 1.88995 3.76553C-0.0440497 7.11397 1.39854 12.035 3.25115 14.7417C4.17805 16.067 5.26133 17.5475 6.67878 17.495C8.06584 17.4375 8.58388 16.6105 10.2582 16.6105C11.9169 16.6105 12.403 17.495 13.8492 17.4616C15.3376 17.4374 16.2753 16.1304 17.1697 14.7924C17.8357 13.8481 18.3481 12.8044 18.6881 11.6999C17.8234 11.3342 17.0855 10.722 16.5664 9.93971C16.0472 9.15741 15.7699 8.2396 15.7689 7.30073Z" fill="white"/>
</svg>
