<svg width="70" height="7" viewBox="0 0 70 7" fill="none" xmlns="http://www.w3.org/2000/svg">
<path d="M2.82619 0.731136C3.2158 0.703177 3.60677 0.762036 3.97088 0.903468C4.335 1.0449 4.66319 1.26538 4.93177 1.549C5.20036 1.83262 5.40265 2.17232 5.52406 2.54358C5.64546 2.91485 5.68295 3.30843 5.63383 3.69594C5.63383 5.60217 4.60355 6.69791 2.82619 6.69791H0.670898V0.731136H2.82619ZM1.59766 5.85408H2.72267C3.00107 5.87072 3.27969 5.82507 3.53823 5.72046C3.79677 5.61584 4.02873 5.4549 4.21723 5.24933C4.40572 5.04377 4.546 4.79877 4.62787 4.53215C4.70973 4.26554 4.73111 3.98402 4.69045 3.7081C4.72816 3.43327 4.70461 3.1535 4.62149 2.88884C4.53837 2.62418 4.39774 2.38118 4.20968 2.17725C4.02161 1.97333 3.79077 1.81352 3.53368 1.70928C3.2766 1.60505 2.99965 1.55897 2.72267 1.57434H1.59766V5.85408Z" fill="white"/>
<path d="M6.6807 4.44438C6.65239 4.14846 6.68624 3.8499 6.78008 3.56783C6.87392 3.28577 7.02568 3.02643 7.22562 2.80645C7.42556 2.58647 7.66928 2.41071 7.94113 2.29044C8.21298 2.17016 8.50696 2.10803 8.80423 2.10803C9.1015 2.10803 9.39549 2.17016 9.66734 2.29044C9.93919 2.41071 10.1829 2.58647 10.3828 2.80645C10.5828 3.02643 10.7345 3.28577 10.8284 3.56783C10.9222 3.8499 10.9561 4.14846 10.9278 4.44438C10.9566 4.74059 10.9232 5.03957 10.8296 5.32209C10.736 5.60461 10.5843 5.86443 10.3843 6.08484C10.1843 6.30525 9.94043 6.48138 9.66831 6.60191C9.39618 6.72245 9.10185 6.78471 8.80423 6.78471C8.50661 6.78471 8.21228 6.72245 7.94015 6.60191C7.66803 6.48138 7.42414 6.30525 7.22414 6.08484C7.02415 5.86443 6.87249 5.60461 6.77889 5.32209C6.6853 5.03957 6.65185 4.74059 6.6807 4.44438ZM10.0137 4.44438C10.0137 3.46832 9.57521 2.89753 8.80569 2.89753C8.03324 2.89753 7.5987 3.46832 7.5987 4.44439C7.5987 5.42826 8.03327 5.99465 8.80569 5.99465C9.57523 5.99464 10.0137 5.42434 10.0137 4.44438H10.0137Z" fill="white"/>
<path d="M16.5732 6.69789H15.6514L14.7207 3.38147H14.6504L13.7236 6.69789H12.8105L11.5693 2.19495H12.4707L13.2773 5.63095H13.3438L14.2695 2.19495H15.1221L16.0479 5.63095H16.1182L16.9209 2.19495H17.8096L16.5732 6.69789Z" fill="white"/>
<path d="M18.8535 2.19487H19.709V2.91022H19.7754C19.8881 2.65329 20.0781 2.43791 20.3189 2.2941C20.5598 2.15029 20.8396 2.08522 21.1192 2.10795C21.3383 2.09147 21.5583 2.12451 21.7629 2.20461C21.9675 2.28471 22.1514 2.40981 22.3011 2.57066C22.4508 2.73151 22.5624 2.92397 22.6276 3.1338C22.6928 3.34362 22.7099 3.56543 22.6778 3.78279V6.69785H21.7891V4.00595C21.7891 3.28231 21.4746 2.92243 20.8174 2.92243C20.6686 2.9155 20.5201 2.94082 20.3821 2.99665C20.244 3.05248 20.1197 3.1375 20.0176 3.24589C19.9154 3.35428 19.8379 3.48347 19.7904 3.6246C19.7429 3.76573 19.7264 3.91548 19.7422 4.06356V6.6979H18.8535L18.8535 2.19487Z" fill="white"/>
<path d="M24.0938 0.437134H24.9824V6.69789H24.0938V0.437134Z" fill="white"/>
<path d="M26.2178 4.44441C26.1895 4.14847 26.2234 3.84988 26.3172 3.5678C26.4111 3.28571 26.5629 3.02636 26.7628 2.80636C26.9628 2.58637 27.2065 2.4106 27.4784 2.29032C27.7503 2.17004 28.0443 2.10791 28.3416 2.10791C28.6388 2.10791 28.9328 2.17004 29.2047 2.29032C29.4766 2.4106 29.7203 2.58637 29.9203 2.80636C30.1202 3.02636 30.272 3.28571 30.3659 3.5678C30.4597 3.84988 30.4936 4.14847 30.4653 4.44441C30.4941 4.74065 30.4607 5.03964 30.367 5.32217C30.2734 5.6047 30.1217 5.86452 29.9217 6.08493C29.7217 6.30534 29.4778 6.48147 29.2057 6.602C28.9335 6.72253 28.6392 6.7848 28.3416 6.7848C28.0439 6.7848 27.7496 6.72253 27.4775 6.602C27.2053 6.48147 26.9614 6.30534 26.7614 6.08493C26.5614 5.86452 26.4097 5.6047 26.3161 5.32217C26.2225 5.03964 26.189 4.74065 26.2178 4.44441ZM29.5508 4.44441C29.5508 3.46833 29.1123 2.89752 28.3428 2.89752C27.5703 2.89752 27.1358 3.46833 27.1358 4.44442C27.1358 5.42833 27.5703 5.99474 28.3428 5.99474C29.1123 5.99473 29.5508 5.42441 29.5508 4.44441H29.5508Z" fill="white"/>
<path d="M31.4009 5.4244C31.4009 4.61382 32.0044 4.14653 33.0757 4.08012L34.2954 4.00981V3.62113C34.2954 3.14553 33.981 2.87697 33.3735 2.87697C32.8774 2.87697 32.5337 3.0591 32.4351 3.37747H31.5747C31.6655 2.60401 32.3931 2.10791 33.4146 2.10791C34.5435 2.10791 35.1802 2.66993 35.1802 3.62113V6.69787H34.3247V6.06504H34.2544C34.1117 6.29204 33.9113 6.47709 33.6737 6.60131C33.436 6.72552 33.1697 6.78444 32.9019 6.77206C32.7128 6.79172 32.5218 6.77155 32.341 6.71285C32.1602 6.65415 31.9938 6.55823 31.8524 6.43125C31.711 6.30428 31.5977 6.14908 31.52 5.97566C31.4422 5.80224 31.4016 5.61445 31.4009 5.4244ZM34.2954 5.03962V4.66315L33.1958 4.73346C32.5757 4.77496 32.2944 4.9859 32.2944 5.38288C32.2944 5.78816 32.646 6.02401 33.1294 6.02401C33.2711 6.03835 33.4142 6.02405 33.5502 5.98196C33.6862 5.93986 33.8123 5.87084 33.9211 5.779C34.0299 5.68716 34.1191 5.57437 34.1834 5.44735C34.2477 5.32032 34.2858 5.18166 34.2954 5.03962Z" fill="white"/>
<path d="M36.3481 4.44449C36.3481 3.02163 37.0796 2.12026 38.2173 2.12026C38.4987 2.10729 38.778 2.1747 39.0225 2.31459C39.267 2.45449 39.4667 2.6611 39.5981 2.91026H39.6646V0.437134H40.5532V6.6979H39.7017V5.98647H39.6313C39.4897 6.23396 39.2831 6.438 39.0339 6.57648C38.7846 6.71496 38.5022 6.78261 38.2173 6.77211C37.0718 6.77216 36.3481 5.87077 36.3481 4.44449ZM37.2661 4.44449C37.2661 5.39958 37.7163 5.97429 38.4693 5.97429C39.2183 5.97429 39.6812 5.39128 39.6812 4.4484C39.6812 3.50992 39.2134 2.9186 38.4693 2.9186C37.7212 2.9186 37.2661 3.49722 37.2661 4.44449H37.2661Z" fill="white"/>
<path d="M44.23 4.44438C44.2017 4.14846 44.2356 3.8499 44.3294 3.56783C44.4232 3.28577 44.575 3.02643 44.7749 2.80645C44.9749 2.58647 45.2186 2.41071 45.4904 2.29044C45.7623 2.17016 46.0563 2.10803 46.3535 2.10803C46.6508 2.10803 46.9448 2.17016 47.2167 2.29044C47.4885 2.41071 47.7322 2.58647 47.9321 2.80645C48.1321 3.02643 48.2838 3.28577 48.3777 3.56783C48.4715 3.8499 48.5054 4.14846 48.4771 4.44438C48.5059 4.74059 48.4725 5.03957 48.3789 5.32209C48.2853 5.60461 48.1336 5.86443 47.9336 6.08484C47.7336 6.30525 47.4897 6.48138 47.2176 6.60191C46.9455 6.72245 46.6512 6.78471 46.3535 6.78471C46.0559 6.78471 45.7616 6.72245 45.4895 6.60191C45.2173 6.48138 44.9734 6.30525 44.7735 6.08484C44.5735 5.86443 44.4218 5.60461 44.3282 5.32209C44.2346 5.03957 44.2012 4.74059 44.23 4.44438ZM47.563 4.44438C47.563 3.46832 47.1245 2.89753 46.355 2.89753C45.5826 2.89753 45.148 3.46832 45.148 4.44439C45.148 5.42826 45.5826 5.99465 46.355 5.99465C47.1245 5.99464 47.563 5.42434 47.563 4.44438Z" fill="white"/>
<path d="M49.6694 2.19487H50.5249V2.91022H50.5913C50.704 2.65329 50.894 2.43791 51.1349 2.2941C51.3757 2.15029 51.6555 2.08522 51.9351 2.10795C52.1542 2.09147 52.3742 2.12451 52.5788 2.20461C52.7834 2.28471 52.9673 2.40981 53.117 2.57066C53.2667 2.73151 53.3783 2.92397 53.4435 3.1338C53.5087 3.34362 53.5258 3.56543 53.4937 3.78279V6.69785H52.605V4.00595C52.605 3.28231 52.2906 2.92243 51.6333 2.92243C51.4846 2.9155 51.3361 2.94082 51.198 2.99665C51.0599 3.05248 50.9356 3.1375 50.8335 3.24589C50.7313 3.35428 50.6539 3.48347 50.6063 3.6246C50.5588 3.76573 50.5424 3.91548 50.5581 4.06356V6.6979H49.6694V2.19487Z" fill="white"/>
<path d="M58.5151 1.07385V2.21545H59.4907V2.96399H58.5151V5.27942C58.5151 5.7511 58.7095 5.95764 59.1518 5.95764C59.2651 5.95728 59.3783 5.95043 59.4907 5.93713V6.67736C59.3311 6.70591 59.1694 6.7211 59.0073 6.72277C58.019 6.72277 57.6255 6.37511 57.6255 5.50695V2.96395H56.9106V2.21541H57.6255V1.07385H58.5151Z" fill="white"/>
<path d="M60.7046 0.437134H61.5855V2.91859H61.6558C61.7739 2.65927 61.9691 2.44267 62.2148 2.29833C62.4605 2.15398 62.7447 2.0889 63.0288 2.11194C63.2467 2.10008 63.4646 2.13647 63.6669 2.21852C63.8692 2.30056 64.0509 2.42623 64.199 2.58657C64.3471 2.74691 64.458 2.93796 64.5238 3.14609C64.5896 3.35423 64.6086 3.57432 64.5796 3.79066V6.69789H63.69V4.00989C63.69 3.29065 63.355 2.92639 62.7271 2.92639C62.5744 2.91386 62.4207 2.93486 62.277 2.98791C62.1332 3.04096 62.0027 3.12479 61.8947 3.23353C61.7867 3.34227 61.7038 3.47329 61.6517 3.61743C61.5997 3.76156 61.5797 3.91534 61.5933 4.06799V6.69787H60.7046L60.7046 0.437134Z" fill="white"/>
<path d="M69.7612 5.48206C69.6405 5.89361 69.3789 6.2496 69.0222 6.48775C68.6655 6.7259 68.2365 6.83106 67.8101 6.78481C67.5134 6.79264 67.2186 6.73582 66.9461 6.61829C66.6736 6.50076 66.4299 6.32534 66.232 6.1042C66.0341 5.88305 65.8867 5.62149 65.8 5.33767C65.7133 5.05384 65.6894 4.75455 65.73 4.46056C65.6905 4.16567 65.7148 3.86574 65.8013 3.58106C65.8878 3.29638 66.0344 3.03361 66.2313 2.81053C66.4282 2.58746 66.6707 2.40928 66.9424 2.28807C67.2141 2.16686 67.5087 2.10545 67.8062 2.10799C69.0591 2.10799 69.8149 2.964 69.8149 4.37802V4.68812H66.6353V4.73792C66.6214 4.90317 66.6421 5.0695 66.6963 5.22625C66.7504 5.383 66.8367 5.52672 66.9496 5.64817C67.0625 5.76963 67.1995 5.86615 67.3519 5.93155C67.5043 5.99695 67.6687 6.02978 67.8345 6.02794C68.0471 6.05346 68.2624 6.01518 68.4532 5.91797C68.6439 5.82076 68.8015 5.66902 68.9058 5.48203L69.7612 5.48206ZM66.6353 4.03087H68.9097C68.9209 3.87974 68.9003 3.72793 68.8494 3.58521C68.7984 3.44249 68.7182 3.31201 68.6138 3.20215C68.5094 3.09229 68.3832 3.00549 68.2432 2.94731C68.1033 2.88913 67.9528 2.86087 67.8013 2.86435C67.6476 2.86242 67.495 2.89127 67.3527 2.94922C67.2103 3.00717 67.081 3.09303 66.9723 3.20174C66.8636 3.31046 66.7778 3.43983 66.72 3.58222C66.6621 3.72462 66.6333 3.87717 66.6353 4.03087H66.6353Z" fill="white"/>
</svg>
