<svg width="10" height="13" viewBox="0 0 10 13" fill="none" xmlns="http://www.w3.org/2000/svg">
<path d="M9.15967 4.96983C9.15967 7.78332 7.65381 9.59094 5.38136 9.59094C4.80571 9.62105 4.23321 9.48845 3.72942 9.20831C3.22563 8.92817 2.81091 8.51182 2.53274 8.00693H2.48974V12.4913H0.631348V0.442469H2.4302V1.94833H2.46438C2.75533 1.44587 3.17706 1.03167 3.68469 0.749828C4.19232 0.467981 4.76686 0.329023 5.34718 0.347738C7.64498 0.347748 9.15967 2.16415 9.15967 4.96983ZM7.24951 4.96983C7.24951 3.13683 6.30225 1.93173 4.85694 1.93173C3.43703 1.93173 2.48195 3.16221 2.48195 4.96983C2.48195 6.79406 3.43703 8.01574 4.85694 8.01574C6.30226 8.01574 7.24951 6.81945 7.24951 4.96983Z" fill="white"/>
</svg>
