<svg width="11" height="14" viewBox="0 0 11 14" fill="none" xmlns="http://www.w3.org/2000/svg">
<path d="M2.71045 10.0362C2.84815 11.2676 4.04445 12.0761 5.6792 12.0761C7.2456 12.0761 8.37255 11.2676 8.37255 10.1572C8.37255 9.19334 7.69286 8.61621 6.08349 8.22069L4.47413 7.83299C2.19386 7.28221 1.13525 6.21581 1.13525 4.48534C1.13525 2.34277 3.00245 0.871094 5.6538 0.871094C8.2778 0.871094 10.0766 2.34277 10.1372 4.48534H8.2612C8.1489 3.24609 7.12448 2.49805 5.62741 2.49805C4.13035 2.49805 3.10593 3.25488 3.10593 4.35644C3.10593 5.23437 3.76023 5.75097 5.36081 6.14644L6.72897 6.48237C9.27682 7.08491 10.3354 8.10837 10.3354 9.92474C10.3354 12.248 8.48483 13.703 5.54147 13.703C2.78756 13.703 0.928195 12.2822 0.808075 10.0361L2.71045 10.0362Z" fill="white"/>
</svg>
