<svg width="9" height="10" viewBox="0 0 9 10" fill="none" xmlns="http://www.w3.org/2000/svg">
<path d="M8.38427 6.83697C8.13427 8.4805 6.53368 9.60842 4.48584 9.60842C1.85205 9.60842 0.217285 7.84379 0.217285 5.01277C0.217285 2.17296 1.86083 0.331177 4.40771 0.331177C6.91259 0.331177 8.48779 2.05186 8.48779 4.79695V5.43366H2.09327V5.54596C2.06375 5.87916 2.10547 6.21482 2.21564 6.53066C2.32582 6.84649 2.50194 7.13527 2.7323 7.37782C2.96265 7.62037 3.24197 7.81113 3.55172 7.93743C3.86146 8.06373 4.19453 8.12269 4.52881 8.11038C4.96797 8.15153 5.40868 8.04982 5.7854 7.82038C6.16211 7.59095 6.45469 7.24604 6.61963 6.83696L8.38427 6.83697ZM2.10205 4.13485H6.62841C6.64509 3.83525 6.59967 3.53545 6.495 3.25424C6.39032 2.97303 6.22864 2.7165 6.02012 2.50073C5.8116 2.28497 5.56073 2.11464 5.28326 2.00042C5.00579 1.88621 4.7077 1.83057 4.40771 1.83702C4.10508 1.83521 3.80509 1.89336 3.52504 2.0081C3.245 2.12284 2.99046 2.29191 2.7761 2.50554C2.56174 2.71917 2.39181 2.97314 2.27612 3.25278C2.16043 3.53243 2.10127 3.83222 2.10205 4.13486V4.13485Z" fill="white"/>
</svg>
