<svg width="5" height="10" viewBox="0 0 5 10" fill="none" xmlns="http://www.w3.org/2000/svg">
<path d="M0.186043 0.442507H1.95851V1.98351H2.00151C2.12143 1.50223 2.40339 1.07689 2.79998 0.779005C3.19657 0.481119 3.68361 0.328839 4.17926 0.347765C4.39342 0.347017 4.607 0.370277 4.81598 0.417107V2.1554C4.54561 2.07278 4.26357 2.03484 3.98098 2.04309C3.711 2.03214 3.44185 2.07974 3.192 2.18263C2.94216 2.28552 2.71753 2.44125 2.53356 2.63914C2.34958 2.83703 2.21061 3.0724 2.12618 3.32907C2.04176 3.58574 2.01387 3.85764 2.04444 4.1261V9.49625H0.186035L0.186043 0.442507Z" fill="white"/>
</svg>
