<svg width="5" height="5" viewBox="0 0 5 5" fill="none" xmlns="http://www.w3.org/2000/svg">
<path d="M0.680699 2.44438C0.65239 2.14846 0.686243 1.8499 0.780083 1.56783C0.873924 1.28577 1.02568 1.02643 1.22562 0.806451C1.42556 0.586472 1.66928 0.410709 1.94113 0.290435C2.21298 0.170161 2.50696 0.108032 2.80423 0.108032C3.1015 0.108032 3.39549 0.170161 3.66734 0.290435C3.93919 0.410709 4.1829 0.586472 4.38284 0.806451C4.58278 1.02643 4.73454 1.28577 4.82838 1.56783C4.92222 1.8499 4.95607 2.14846 4.92776 2.44438C4.95661 2.74059 4.92316 3.03957 4.82957 3.32209C4.73597 3.60461 4.58431 3.86443 4.38432 4.08484C4.18432 4.30525 3.94043 4.48138 3.66831 4.60191C3.39618 4.72245 3.10185 4.78471 2.80423 4.78471C2.50661 4.78471 2.21228 4.72245 1.94015 4.60191C1.66803 4.48138 1.42414 4.30525 1.22414 4.08484C1.02415 3.86443 0.872485 3.60461 0.778893 3.32209C0.685301 3.03957 0.651853 2.74059 0.680699 2.44438ZM4.01369 2.44438C4.01369 1.46832 3.57521 0.897529 2.80569 0.897529C2.03324 0.897529 1.5987 1.46832 1.5987 2.44439C1.5987 3.42826 2.03327 3.99465 2.80569 3.99465C3.57523 3.99464 4.0137 3.42434 4.0137 2.44438H4.01369Z" fill="white"/>
</svg>
