<svg width="5" height="5" viewBox="0 0 5 5" fill="none" xmlns="http://www.w3.org/2000/svg">
<path d="M0.400879 3.4244C0.400879 2.61382 1.0044 2.14653 2.07568 2.08012L3.29541 2.00981V1.62113C3.29541 1.14553 2.98096 0.87697 2.37354 0.87697C1.87745 0.87697 1.5337 1.0591 1.43506 1.37747H0.574707C0.665527 0.604013 1.39307 0.10791 2.41455 0.10791C3.54346 0.10791 4.18018 0.669925 4.18018 1.62113V4.69787H3.32471V4.06504H3.25439C3.11168 4.29204 2.91128 4.47709 2.67365 4.60131C2.43603 4.72552 2.1697 4.78444 1.90186 4.77206C1.71282 4.79172 1.52176 4.77155 1.341 4.71285C1.16024 4.65415 0.993789 4.55823 0.852371 4.43125C0.710954 4.30428 0.597716 4.14908 0.519951 3.97566C0.442186 3.80224 0.401624 3.61445 0.400879 3.4244ZM3.29541 3.03962V2.66315L2.1958 2.73346C1.57568 2.77496 1.29443 2.9859 1.29443 3.38288C1.29443 3.78816 1.64599 4.02401 2.12943 4.02401C2.27107 4.03835 2.41415 4.02405 2.55016 3.98196C2.68616 3.93986 2.81231 3.87084 2.9211 3.779C3.02988 3.68716 3.11908 3.57437 3.18339 3.44735C3.24769 3.32032 3.28579 3.18166 3.29541 3.03962Z" fill="white"/>
</svg>
