<svg width="5" height="7" viewBox="0 0 5 7" fill="none" xmlns="http://www.w3.org/2000/svg">
<path d="M0.70459 0.437134H1.58546V2.91859H1.65576C1.7739 2.65927 1.96912 2.44267 2.21482 2.29833C2.46052 2.15398 2.74474 2.0889 3.02877 2.11194C3.24673 2.10008 3.46463 2.13647 3.66691 2.21852C3.86919 2.30056 4.05087 2.42623 4.19899 2.58657C4.34711 2.74691 4.45802 2.93796 4.52381 3.14609C4.58959 3.35423 4.60863 3.57432 4.57956 3.79066V6.69789H3.69V4.00989C3.69 3.29065 3.355 2.92639 2.7271 2.92639C2.57436 2.91386 2.42073 2.93486 2.27695 2.98791C2.13317 3.04096 2.00272 3.12479 1.89473 3.23353C1.78674 3.34227 1.70381 3.47329 1.65174 3.61743C1.59967 3.76156 1.57973 3.91534 1.59331 4.06799V6.69787H0.704628L0.70459 0.437134Z" fill="white"/>
</svg>
