<svg width="5" height="5" viewBox="0 0 5 5" fill="none" xmlns="http://www.w3.org/2000/svg">
<path d="M0.853523 0.194871H1.70899V0.910217H1.7754C1.88806 0.65329 2.07806 0.437913 2.31894 0.294104C2.55981 0.150295 2.83955 0.085219 3.11917 0.107948C3.33827 0.091475 3.55827 0.124511 3.76287 0.204609C3.96747 0.284707 4.15142 0.409814 4.30111 0.570662C4.45079 0.731509 4.56237 0.923974 4.62757 1.1338C4.69277 1.34362 4.70993 1.56543 4.67777 1.78279V4.69785H3.78909V2.00595C3.78909 1.28231 3.47464 0.922428 2.8174 0.922428C2.66865 0.915499 2.52014 0.940818 2.38209 0.996649C2.24403 1.05248 2.11968 1.1375 2.01755 1.24589C1.91543 1.35428 1.83794 1.48347 1.79041 1.6246C1.74289 1.76573 1.72644 1.91548 1.74219 2.06356V4.6979H0.853516L0.853523 0.194871Z" fill="white"/>
</svg>
