<svg width="5" height="7" viewBox="0 0 5 7" fill="none" xmlns="http://www.w3.org/2000/svg">
<path d="M0.348137 4.44449C0.348137 3.02163 1.07959 2.12026 2.21728 2.12026C2.49869 2.10729 2.77799 2.1747 3.02251 2.31459C3.26704 2.45449 3.46669 2.6611 3.59814 2.91026H3.66455V0.437134H4.55322V6.6979H3.70166V5.98647H3.63135C3.48974 6.23396 3.28313 6.438 3.03387 6.57648C2.78462 6.71496 2.50223 6.78261 2.21729 6.77211C1.07178 6.77216 0.348137 5.87077 0.348137 4.44449ZM1.26614 4.44449C1.26614 5.39958 1.71634 5.97429 2.46927 5.97429C3.21827 5.97429 3.68118 5.39128 3.68118 4.4484C3.68118 3.50992 3.21341 2.9186 2.46927 2.9186C1.72119 2.9186 1.26611 3.49722 1.26611 4.44449H1.26614Z" fill="white"/>
</svg>
