<svg width="6" height="7" viewBox="0 0 6 7" fill="none" xmlns="http://www.w3.org/2000/svg">
<path d="M2.82619 0.731136C3.2158 0.703177 3.60677 0.762036 3.97088 0.903468C4.335 1.0449 4.66319 1.26538 4.93177 1.549C5.20036 1.83262 5.40265 2.17232 5.52406 2.54358C5.64546 2.91485 5.68295 3.30843 5.63383 3.69594C5.63383 5.60217 4.60355 6.69791 2.82619 6.69791H0.670898V0.731136H2.82619ZM1.59766 5.85408H2.72267C3.00107 5.87072 3.27969 5.82507 3.53823 5.72046C3.79677 5.61584 4.02873 5.4549 4.21723 5.24933C4.40572 5.04377 4.546 4.79877 4.62787 4.53215C4.70973 4.26554 4.73111 3.98402 4.69045 3.7081C4.72816 3.43327 4.70461 3.1535 4.62149 2.88884C4.53837 2.62418 4.39774 2.38118 4.20968 2.17725C4.02161 1.97333 3.79077 1.81352 3.53368 1.70928C3.2766 1.60505 2.99965 1.55897 2.72267 1.57434H1.59766V5.85408Z" fill="white"/>
</svg>
