<svg width="5" height="5" viewBox="0 0 5 5" fill="none" xmlns="http://www.w3.org/2000/svg">
<path d="M4.76124 3.48206C4.6405 3.89361 4.3789 4.2496 4.02222 4.48775C3.66553 4.7259 3.23646 4.83106 2.81008 4.78481C2.51342 4.79264 2.2186 4.73582 1.9461 4.61829C1.67361 4.50076 1.42995 4.32534 1.23204 4.1042C1.03413 3.88305 0.886717 3.62149 0.800026 3.33767C0.713335 3.05384 0.689449 2.75455 0.730019 2.46056C0.690514 2.16567 0.714821 1.86574 0.801308 1.58106C0.887794 1.29638 1.03444 1.03361 1.2313 0.810534C1.42817 0.587457 1.67066 0.409282 1.94237 0.288073C2.21408 0.166863 2.50866 0.105449 2.80617 0.107986C4.05909 0.107986 4.81494 0.963999 4.81494 2.37802V2.68812H1.63528V2.73792C1.62136 2.90317 1.64214 3.0695 1.69626 3.22625C1.75038 3.383 1.83666 3.52672 1.94957 3.64817C2.06248 3.76963 2.19952 3.86615 2.35191 3.93155C2.5043 3.99695 2.66867 4.02978 2.83449 4.02794C3.04706 4.05346 3.26242 4.01518 3.45318 3.91797C3.64394 3.82076 3.80148 3.66902 3.90577 3.48203L4.76124 3.48206ZM1.63526 2.03087H3.90965C3.92085 1.87974 3.90031 1.72793 3.84936 1.58521C3.7984 1.44249 3.71816 1.31201 3.61377 1.20215C3.50939 1.09229 3.38317 1.00549 3.24324 0.94731C3.10331 0.889134 2.95276 0.860874 2.80126 0.864348C2.64756 0.862417 2.49503 0.891275 2.35266 0.94922C2.2103 1.00717 2.08097 1.09303 1.9723 1.20174C1.86364 1.31046 1.77784 1.43983 1.71996 1.58222C1.66207 1.72462 1.63328 1.87717 1.63528 2.03087H1.63526Z" fill="white"/>
</svg>
